<?xml version="1.0" standalone="no"?>
<!DOCTYPE svg PUBLIC "-//W3C//DTD SVG 1.1//EN" "http://www.w3.org/Graphics/SVG/1.1/DTD/svg11.dtd">
<svg version="1.1" xmlns="http://www.w3.org/2000/svg" viewBox="0 0 592 322" width="592" height="322"><!-- svg-source:excalidraw --><metadata></metadata><defs><style class="style-fonts">
      </style></defs><g stroke-linecap="round" transform="translate(181 110) rotate(0 70 41)"><path d="M20.5 0 C52.28 1.5, 84.95 0.8, 119.5 0 M20.5 0 C58.03 -0.67, 94.59 -0.38, 119.5 0 M119.5 0 C131.28 -1.35, 141.47 5.14, 140 20.5 M119.5 0 C132.09 0.94, 142.05 7.21, 140 20.5 M140 20.5 C140.87 34.43, 139.51 51.82, 140 61.5 M140 20.5 C140.5 32.5, 139.54 42.78, 140 61.5 M140 61.5 C139.61 74.28, 132.37 83.6, 119.5 82 M140 61.5 C139.27 76.41, 131.32 81.23, 119.5 82 M119.5 82 C97.62 83.7, 81.62 81.96, 20.5 82 M119.5 82 C84.41 81.51, 51.81 82, 20.5 82 M20.5 82 C7.44 83.72, 0.46 77.06, 0 61.5 M20.5 82 C7.88 84.11, 0.58 74.13, 0 61.5 M0 61.5 C1.84 45.53, -1.15 30.9, 0 20.5 M0 61.5 C0.92 45.87, -0.53 29.27, 0 20.5 M0 20.5 C-1.91 5.75, 6.68 -1.24, 20.5 0 M0 20.5 C-1.25 8.92, 7.84 -0.43, 20.5 0" stroke="#d3d3d3" stroke-width="2" fill="none"></path></g><g stroke-linecap="round" transform="translate(10 10) rotate(0 48.5 43)"><path d="M21.5 0 C41.41 -1.01, 56.76 0.97, 75.5 0 M21.5 0 C33.53 0.64, 46.02 0.03, 75.5 0 M75.5 0 C90.97 -1.57, 95.81 6.77, 97 21.5 M75.5 0 C88.82 -0.91, 98.84 6.44, 97 21.5 M97 21.5 C94.68 35.47, 97.45 49.99, 97 64.5 M97 21.5 C97.87 37.36, 97.79 52.03, 97 64.5 M97 64.5 C95.3 80.26, 89.1 86.61, 75.5 86 M97 64.5 C98.98 79.36, 92.01 87.05, 75.5 86 M75.5 86 C56.01 84.2, 31.23 87.27, 21.5 86 M75.5 86 C61 86.39, 43.66 87.21, 21.5 86 M21.5 86 C8.56 85.09, 0.82 76.92, 0 64.5 M21.5 86 C5.92 85.82, -1.43 77.58, 0 64.5 M0 64.5 C1.45 47.21, 0.59 31.1, 0 21.5 M0 64.5 C-0.16 49.01, -0.46 35.94, 0 21.5 M0 21.5 C1.2 8.31, 9.13 -1.19, 21.5 0 M0 21.5 C-1.23 7.29, 5.14 1.18, 21.5 0" stroke="#d3d3d3" stroke-width="2" fill="none"></path></g><g stroke-linecap="round" transform="translate(302 24) rotate(0 111 37.5)"><path d="M18.75 0 C70.87 -2.05, 119.83 1.15, 203.25 0 M18.75 0 C67.6 -0.64, 116.45 -0.68, 203.25 0 M203.25 0 C216.25 -0.91, 223.66 4.69, 222 18.75 M203.25 0 C213.47 1.74, 221.69 4.56, 222 18.75 M222 18.75 C220.6 33.49, 223.76 43.33, 222 56.25 M222 18.75 C221.56 30.92, 221.1 45.25, 222 56.25 M222 56.25 C222.87 68.38, 217.39 74.5, 203.25 75 M222 56.25 C222.89 68.97, 216.66 76.81, 203.25 75 M203.25 75 C143.21 74.65, 84.84 74.51, 18.75 75 M203.25 75 C129.83 73.13, 56.81 73.49, 18.75 75 M18.75 75 C5.25 73.78, -1.75 70.52, 0 56.25 M18.75 75 C7.47 74.96, 1.31 70.02, 0 56.25 M0 56.25 C2.11 47.47, 0.82 38.24, 0 18.75 M0 56.25 C1 40.75, -0.39 27.77, 0 18.75 M0 18.75 C-1.44 8.08, 4.5 -0.79, 18.75 0 M0 18.75 C1.94 8.04, 4.58 0.75, 18.75 0" stroke="#d3d3d3" stroke-width="2" fill="none"></path></g><g stroke-linecap="round" transform="translate(73 193) rotate(0 37 42.5)"><path d="M18.5 0 C35.23 1.72, 47.05 1.15, 55.5 0 M18.5 0 C25.44 -0.51, 34.54 0.47, 55.5 0 M55.5 0 C67.46 1.64, 73.5 6.94, 74 18.5 M55.5 0 C68.05 0.91, 75.81 6.72, 74 18.5 M74 18.5 C74.86 34.96, 74.72 50.98, 74 66.5 M74 18.5 C72.86 30.56, 73.22 41.09, 74 66.5 M74 66.5 C72.78 77.08, 69.61 86.06, 55.5 85 M74 66.5 C73.96 80.14, 69.11 83.71, 55.5 85 M55.5 85 C47.87 85.84, 39.8 87.18, 18.5 85 M55.5 85 C45.85 84.67, 38.73 84.57, 18.5 85 M18.5 85 C8 83.25, -0.79 80.52, 0 66.5 M18.5 85 C7.96 83.33, 0.75 80.74, 0 66.5 M0 66.5 C-0.07 51.18, -0.11 36.45, 0 18.5 M0 66.5 C0.81 50.88, 0.09 33.73, 0 18.5 M0 18.5 C1.02 6.51, 7.61 -0.31, 18.5 0 M0 18.5 C0.02 7.72, 4.74 -0.72, 18.5 0" stroke="#d3d3d3" stroke-width="2" fill="none"></path></g><g stroke-linecap="round" transform="translate(313 228) rotate(0 134.5 42)"><path d="M21 0 C94.26 1.26, 166.3 1.91, 248 0 M21 0 C74.84 0.33, 129.74 -0.53, 248 0 M248 0 C260.78 -1.75, 270.77 8.06, 269 21 M248 0 C261.96 1.31, 270.27 5.71, 269 21 M269 21 C269.09 30.57, 269 40.98, 269 63 M269 21 C268.49 30.43, 270.23 40.38, 269 63 M269 63 C270.83 75.25, 261.21 85.69, 248 84 M269 63 C270.79 75.33, 262.75 85.91, 248 84 M248 84 C176.9 85.3, 106.16 85.48, 21 84 M248 84 C172.32 85.8, 95.6 84.9, 21 84 M21 84 C8.02 84.35, 1.44 76.69, 0 63 M21 84 C7.02 85.55, -1.42 76.28, 0 63 M0 63 C-1.15 49.97, 1.89 38.06, 0 21 M0 63 C0.42 48.09, 0.39 32.12, 0 21 M0 21 C1.15 5.59, 8.31 -0.21, 21 0 M0 21 C-1.94 6.83, 7.69 1.01, 21 0" stroke="#d3d3d3" stroke-width="2" fill="none"></path></g><g stroke-linecap="round"><g transform="translate(250.35643749999986 104) rotate(0 -65.88162792375547 -30.066484124255325)"><path d="M0.93 -0.87 C0.02 -10.54, 17.06 -48.43, -5.97 -57.01 C-28.99 -65.58, -115.49 -53.22, -137.22 -52.32 M-0.03 1.29 C-1.03 -8.18, 16.27 -49.8, -6.71 -58.61 C-29.69 -67.41, -116.43 -52.87, -137.91 -51.54" stroke="#d3d3d3" stroke-width="2" fill="none"></path></g><g transform="translate(250.35643749999986 104) rotate(0 -65.88162792375547 -30.066484124255325)"><path d="M-115.53 -62.67 C-122.72 -58.94, -125.44 -56.46, -137.91 -51.54 M-115.53 -62.67 C-120.43 -60.59, -125.13 -57.59, -137.91 -51.54" stroke="#d3d3d3" stroke-width="2" fill="none"></path></g><g transform="translate(250.35643749999986 104) rotate(0 -65.88162792375547 -30.066484124255325)"><path d="M-113.61 -45.68 C-121.44 -46.36, -124.67 -48.31, -137.91 -51.54 M-113.61 -45.68 C-119.06 -47.25, -124.18 -47.9, -137.91 -51.54" stroke="#d3d3d3" stroke-width="2" fill="none"></path></g></g><mask></mask><g stroke-linecap="round"><g transform="translate(250.64347692307695 198) rotate(0 -46.1784590640176 30.28698362335345)"><path d="M0.83 -0.72 C0.03 9.45, 12.12 53.62, -4.26 60.18 C-20.64 66.74, -81.97 42.29, -97.43 38.65 M-0.2 1.52 C-0.64 11.46, 14.44 52.28, -1.87 58.68 C-18.19 65.07, -82.32 43.14, -98.09 39.9" stroke="#d3d3d3" stroke-width="2" fill="none"></path></g><g transform="translate(250.64347692307695 198) rotate(0 -46.1784590640176 30.28698362335345)"><path d="M-73.18 37.8 C-82.88 37.66, -88.22 39.75, -98.09 39.9 M-73.18 37.8 C-81.16 37.6, -87.87 39.23, -98.09 39.9" stroke="#d3d3d3" stroke-width="2" fill="none"></path></g><g transform="translate(250.64347692307695 198) rotate(0 -46.1784590640176 30.28698362335345)"><path d="M-77.66 54.3 C-85.72 48.5, -89.53 44.97, -98.09 39.9 M-77.66 54.3 C-84.43 49.37, -89.85 46.25, -98.09 39.9" stroke="#d3d3d3" stroke-width="2" fill="none"></path></g></g><mask></mask><g stroke-linecap="round"><g transform="translate(251.82254054054056 198) rotate(0 94.19452754605425 -7.431952957880469)"><path d="M-1.13 -0.62 C-0.16 4.47, -15.57 32.2, 5.34 30.18 C26.25 28.17, 97.85 -0.11, 124.31 -12.71 C150.76 -25.31, 152.47 -51.39, 164.09 -45.41 C175.72 -39.43, 189.19 11.69, 194.08 23.2 M0.48 1.66 C1.44 6.92, -16.04 33.53, 5 31.29 C26.05 29.05, 100.19 0.87, 126.74 -11.76 C153.29 -24.4, 153.24 -50.34, 164.3 -44.52 C175.36 -38.7, 188.57 12.01, 193.08 23.17" stroke="#d3d3d3" stroke-width="2" fill="none"></path></g><g transform="translate(251.82254054054056 198) rotate(0 94.19452754605425 -7.431952957880469)"><path d="M177.57 3.56 C180.48 10.71, 184.16 12.39, 193.08 23.17 M177.57 3.56 C182.05 7.67, 185.26 12.76, 193.08 23.17" stroke="#d3d3d3" stroke-width="2" fill="none"></path></g><g transform="translate(251.82254054054056 198) rotate(0 94.19452754605425 -7.431952957880469)"><path d="M193.8 -1.82 C192.5 6.56, 191.99 9.63, 193.08 23.17 M193.8 -1.82 C194.36 3.52, 193.67 9.91, 193.08 23.17" stroke="#d3d3d3" stroke-width="2" fill="none"></path></g></g><mask></mask><g stroke-linecap="round"><g transform="translate(327 149.7347272727273) rotate(0 41.180714122680115 -22.89347875023296)"><path d="M0.49 -0.37 C10.54 -2.83, 47.12 -6.14, 60.89 -13.64 C74.65 -21.15, 79.48 -40.39, 83.07 -45.42 M-0.71 -1.61 C9.2 -3.43, 46.47 -5.44, 60.4 -12.58 C74.34 -19.72, 79.15 -38.91, 82.91 -44.46" stroke="#d3d3d3" stroke-width="2" fill="none"></path></g><g transform="translate(327 149.7347272727273) rotate(0 41.180714122680115 -22.89347875023296)"><path d="M80.9 -25.17 C80.83 -30.55, 80.67 -36.91, 82.91 -44.46 M80.9 -25.17 C81.31 -30.49, 82.56 -34.05, 82.91 -44.46" stroke="#d3d3d3" stroke-width="2" fill="none"></path></g><g transform="translate(327 149.7347272727273) rotate(0 41.180714122680115 -22.89347875023296)"><path d="M68.97 -30.97 C73.16 -34.35, 77.21 -38.67, 82.91 -44.46 M68.97 -30.97 C72.31 -34.98, 76.46 -37.12, 82.91 -44.46" stroke="#d3d3d3" stroke-width="2" fill="none"></path></g></g><mask></mask></svg>